#!OML:ASF F:\VICON\USERDATA\INSTALL\rory3\rory3.ASF
:FULLY-SPECIFIED
:DEGREES
971
root -1.99518 18.0904 -2.5752 -6.93221 -83.9957 6.84955
lowerback 7.22396 -0.0352018 -1.61841
upperback -4.79088 -0.153469 1.38651
thorax -9.13504 0.061809 2.40992
lowerneck -22.992 -2.85729 -13.7961
upperneck -8.44654 -1.10609 10.786
head 1.13315 -0.143306 5.55077
rclavicle 2.78299e-015 -8.74653e-015
rhumerus 87.4026 -28.9336 -30.3082
rradius 34.997
rwrist 3.5963
rhand -28.636 1.54138
rfingers 7.12502
rthumb -2.00015 -28.429
lclavicle 2.78299e-015 -8.74653e-015
lhumerus 92.616 34.1553 45.2911
lradius 23.6701
lwrist 6.70764
lhand -14.3579 32.4319
lfingers 7.12502
lthumb 11.784 62.0804
rfemur -6.68012 15.8244 3.72102
rtibia 31.7369
rfoot -6.96154 -11.9142
rtoes 8.87269
lfemur -0.644576 1.43555 -10.1234
ltibia 30.6314
lfoot -1.57856 -0.185921
ltoes -34.2258
972
root -2.00478 18.2373 -2.4878 -9.20708 -84.1522 9.09983
lowerback 7.19342 -0.0355447 -1.98883
upperback -4.83977 -0.199436 1.34378
thorax -9.16881 0.0620093 2.5805
lowerneck -23.25 -2.98722 -13.8235
upperneck -8.10777 -1.2426 10.7137
head 1.28366 -0.206624 5.51944
rclavicle -3.08116e-015 3.57812e-015
rhumerus 87.8895 -28.7154 -31.0916
rradius 34.2493
rwrist 4.59402
rhand -29.0301 1.59295
rfingers 7.12502
rthumb -2.38081 -28.3735
lclavicle -3.08116e-015 3.57812e-015
lhumerus 92.0272 34.1585 44.4704
lradius 23.8848
lwrist 7.65976
lhand -14.6166 32.8586
lfingers 7.12502
lthumb 11.5345 62.5212
rfemur -6.60121 14.999 3.8348
rtibia 31.7017
rfoot -7.03039 -12.713
rtoes 10.3307
lfemur -0.341965 1.10164 -10.3465
ltibia 29.452
lfoot 1.81206 -0.908599
ltoes -34.0562
973
root -2.0122 18.3774 -2.40017 -11.7882 -84.2822 11.8758
lowerback 7.07273 -0.0661102 -2.46138
upperback -5.04366 -0.296747 1.34681
thorax -9.316 0.0478064 2.8665
lowerneck -23.2833 -3.01889 -13.8206
upperneck -7.78309 -1.27946 10.5748
head 1.38693 -0.226875 5.46841
rclavicle 1.73937e-015 1.19271e-015
rhumerus 88.169 -28.5326 -31.9056
rradius 33.8113
rwrist 4.93816
rhand -28.7232 1.98243
rfingers 7.12502
rthumb -2.08435 -27.9871
lclavicle 1.73937e-015 1.19271e-015
lhumerus 91.1619 34.1833 43.3847
lradius 24.0419
lwrist 8.59785
lhand -14.7051 33.0907
lfingers 7.12502
lthumb 11.4492 62.7581
rfemur -6.77382 13.8919 3.86357
rtibia 31.9065
rfoot -7.89355 -12.9169
rtoes 10.242
lfemur -0.310815 0.658565 -10.6343
ltibia 28.2679
lfoot 5.16777 -1.52199
ltoes -33.4472
974
root -2.01901 18.5117 -2.31063 -12.452 -84.4565 12.8429
lowerback 6.88182 -0.100737 -2.76166
upperback -5.26129 -0.371766 1.44918
thorax -9.4374 0.037252 3.15769
lowerneck -23.3173 -3.07358 -13.9593
upperneck -7.48946 -1.31096 10.4582
head 1.48064 -0.241222 5.44859
rclavicle -1.87852e-014 -3.57812e-015
rhumerus 88.98 -28.1838 -32.8284
rradius 33.1745
rwrist 5.2949
rhand -28.2037 1.08476
rfingers 7.12502
rthumb -1.58264 -28.8891
lclavicle -1.87852e-014 -3.57812e-015
lhumerus 90.2755 34.2823 42.3374
lradius 24.2075
lwrist 9.26295
lhand -14.8589 33.4336
lfingers 7.12502
lthumb 11.3008 63.1092
rfemur -7.13536 12.5292 4.08468
rtibia 32.2867
rfoot -8.52574 -12.7978
rtoes 9.01002
lfemur -0.448813 -0.0525797 -10.7481
ltibia 27.1123
lfoot 8.35779 -2.03368
ltoes -32.0377
975
root -2.02592 18.6429 -2.21772 -13.6398 -84.5653 14.3037
lowerback 6.74857 -0.122861 -2.9872
upperback -5.40909 -0.426333 1.47797
thorax -9.51737 0.0286771 3.32462
lowerneck -23.4565 -3.22252 -14.2163
upperneck -7.2131 -1.42466 10.4182
head 1.59473 -0.290251 5.46673
rclavicle -4.96962e-017 3.57812e-015
rhumerus 88.6331 -28.708 -32.4301
rradius 33.1023
rwrist 4.33408
rhand -27.8399 0.384342
rfingers 7.12502
rthumb -1.23125 -29.5919
lclavicle -4.96962e-017 3.57812e-015
lhumerus 89.7582 34.3411 41.6838
lradius 24.2805
lwrist 9.70556
lhand -15.1865 33.614
lfingers 7.12502
lthumb 10.9849 63.3066
rfemur -7.48074 10.9148 4.25501
rtibia 32.7558
rfoot -8.40814 -11.8894
rtoes 8.18478
lfemur -0.639679 -0.990863 -10.9809
ltibia 26.0879
lfoot 10.9878 -2.88048
ltoes -30.3546
976
root -2.03147 18.764 -2.12208 -14.2352 -84.7971 14.9636
lowerback 6.80659 -0.0974816 -3.01659
upperback -5.49142 -0.399687 1.4779
thorax -9.64517 0.0467187 3.3396
lowerneck -23.5547 -3.34718 -14.3398
upperneck -6.89955 -1.54139 10.3186
head 1.71386 -0.34638 5.44268
rclavicle 5.71506e-015 -1.35174e-014
rhumerus 89.3913 -28.5513 -33.42
rradius 32.4025
rwrist 4.68783
rhand -27.4333 0.307868
rfingers 7.12502
rthumb -0.838576 -29.6702
lclavicle 5.71506e-015 -1.35174e-014
lhumerus 89.7578 34.2559 41.7057
lradius 24.2609
lwrist 9.5759
lhand -15.2636 33.6888
lfingers 7.12502
lthumb 10.9105 63.3854
rfemur -7.64608 9.71593 4.61851
rtibia 33.2778
rfoot -8.0198 -11.0267
rtoes 7.92546
lfemur -0.58675 -2.12862 -11.1477
ltibia 25.2429
lfoot 12.393 -3.81613
ltoes -28.6865
977
root -2.03381 18.8664 -2.02376 -14.0887 -85.0088 14.9444
lowerback 6.77651 -0.0804852 -2.88801
upperback -5.59407 -0.372447 1.39446
thorax -9.74271 0.0499313 3.17469
lowerneck -23.3801 -3.40143 -14.2968
upperneck -6.80984 -1.63983 10.2662
head 1.72858 -0.399715 5.40891
rclavicle 4.82053e-015 9.54166e-015
rhumerus 89.7045 -28.5802 -34.139
rradius 31.9759
rwrist 4.78742
rhand -26.9491 0.499166
rfingers 7.12502
rthumb -0.37095 -29.4803
lclavicle 4.82053e-015 9.54166e-015
lhumerus 90.0117 34.0438 41.9116
lradius 24.2777
lwrist 9.22708
lhand -15.3393 33.9282
lfingers 7.12502
lthumb 10.8375 63.6286
rfemur -7.83422 8.88065 5.08203
rtibia 33.821
rfoot -7.66663 -10.5706
rtoes 6.8814
lfemur -0.651644 -3.42477 -11.2402
ltibia 24.6535
lfoot 12.355 -4.05279
ltoes -28.4217
